<svg width="40" height="40" viewBox="0 0 40 40" fill="none" xmlns="http://www.w3.org/2000/svg">
    <circle cx="20" cy="20" r="20" fill="white"/>
    <g clip-path="url(#clip0_67_4)">
    <path d="M8.86299 15.2627C9.19117 14.9347 9.63621 14.7504 10.1002 14.7504C10.5643 14.7504 11.0093 14.9347 11.3375 15.2627L20 23.9252L28.6625 15.2627C28.9925 14.944 29.4346 14.7676 29.8934 14.7716C30.3523 14.7755 30.7912 14.9596 31.1157 15.2841C31.4401 15.6085 31.6242 16.0474 31.6282 16.5063C31.6322 16.9651 31.4558 17.4072 31.137 17.7372L21.2372 27.637C20.9091 27.9651 20.464 28.1494 20 28.1494C19.536 28.1494 19.0909 27.9651 18.7627 27.637L8.86299 17.7372C8.53492 17.4091 8.35062 16.964 8.35062 16.5C8.35062 16.036 8.53492 15.5909 8.86299 15.2627Z" fill="#14205D"/>
    </g>
    <defs>
    <clipPath id="clip0_67_4">
    <rect width="28" height="28" fill="white" transform="translate(6 6)"/>
    </clipPath>
    </defs>
    </svg>
    